<svg width="20" height="20" viewBox="0 0 20 20" fill="none" xmlns="http://www.w3.org/2000/svg">
<path d="M8.33929 7.59375L12.5893 10.0089L8.33929 12.4241V7.59375ZM20 2.14286V17.8571C20 19.0402 19.0402 20 17.8571 20H2.14286C0.959821 20 0 19.0402 0 17.8571V2.14286C0 0.959821 0.959821 0 2.14286 0H17.8571C19.0402 0 20 0.959821 20 2.14286ZM18.125 10.0134C18.125 10.0134 18.125 7.35268 17.7857 6.07589C17.5982 5.37054 17.0491 4.81696 16.3482 4.62946C15.0848 4.28571 10 4.28571 10 4.28571C10 4.28571 4.91518 4.28571 3.65179 4.62946C2.95089 4.81696 2.40179 5.37054 2.21429 6.07589C1.875 7.34821 1.875 10.0134 1.875 10.0134C1.875 10.0134 1.875 12.6741 2.21429 13.9509C2.40179 14.6563 2.95089 15.1875 3.65179 15.375C4.91518 15.7143 10 15.7143 10 15.7143C10 15.7143 15.0848 15.7143 16.3482 15.3705C17.0491 15.183 17.5982 14.6518 17.7857 13.9464C18.125 12.6741 18.125 10.0134 18.125 10.0134Z" fill="#434141"/>
</svg>
